<svg width="168" height="45" viewBox="0 0 168 45" fill="none" xmlns="http://www.w3.org/2000/svg">
<path d="M28.5714 0H11.4286C5.11676 0 0 5.11676 0 11.4286V28.5714C0 34.8832 5.11676 40 11.4286 40H28.5714C34.8832 40 40 34.8832 40 28.5714V11.4286C40 5.11676 34.8832 0 28.5714 0Z" fill="#5956E9"/>
<path opacity="0.5" d="M12.8569 18.5712C16.0128 18.5712 18.5712 16.0128 18.5712 12.8569C18.5712 9.70101 16.0128 7.14264 12.8569 7.14264C9.70098 7.14264 7.14261 9.70101 7.14261 12.8569C7.14261 16.0128 9.70098 18.5712 12.8569 18.5712Z" fill="white"/>
<path d="M12.8569 32.8573C16.0128 32.8573 18.5712 30.2989 18.5712 27.143C18.5712 23.9871 16.0128 21.4287 12.8569 21.4287C9.70098 21.4287 7.14261 23.9871 7.14261 27.143C7.14261 30.2989 9.70098 32.8573 12.8569 32.8573Z" fill="#FFDC60"/>
<path d="M27.143 18.5712C30.2989 18.5712 32.8573 16.0128 32.8573 12.8569C32.8573 9.70101 30.2989 7.14264 27.143 7.14264C23.9871 7.14264 21.4287 9.70101 21.4287 12.8569C21.4287 16.0128 23.9871 18.5712 27.143 18.5712Z" fill="#FAB8C4"/>
<path opacity="0.5" d="M27.143 32.8573C30.2989 32.8573 32.8573 30.2989 32.8573 27.143C32.8573 23.9871 30.2989 21.4287 27.143 21.4287C23.9871 21.4287 21.4287 23.9871 21.4287 27.143C21.4287 30.2989 23.9871 32.8573 27.143 32.8573Z" fill="white"/>
<path d="M59.974 9.868C61.8327 9.868 63.578 10.2307 65.21 10.956C66.8647 11.6587 68.304 12.6333 69.528 13.88C70.752 15.104 71.7153 16.5433 72.418 18.198C73.1433 19.8527 73.506 21.6093 73.506 23.468C73.506 25.3493 73.1433 27.1173 72.418 28.772C71.7153 30.404 70.752 31.832 69.528 33.056C68.304 34.28 66.8647 35.2433 65.21 35.946C63.5553 36.6487 61.7873 37 59.906 37C58.0247 37 56.2567 36.6487 54.602 35.946C52.97 35.2433 51.542 34.28 50.318 33.056C49.094 31.832 48.1307 30.404 47.428 28.772C46.7253 27.1173 46.374 25.3493 46.374 23.468V7.08H53.106V23.468C53.106 24.3973 53.2873 25.2813 53.65 26.12C54.0127 26.936 54.5 27.65 55.112 28.262C55.724 28.874 56.438 29.3613 57.254 29.724C58.0927 30.0867 58.9767 30.268 59.906 30.268C60.858 30.268 61.7533 30.0867 62.592 29.724C63.4307 29.3613 64.156 28.874 64.768 28.262C65.38 27.65 65.8673 26.936 66.23 26.12C66.5927 25.2813 66.774 24.3973 66.774 23.468C66.774 22.516 66.5927 21.6207 66.23 20.782C65.8673 19.9433 65.38 19.218 64.768 18.606C64.156 17.994 63.4307 17.5067 62.592 17.144C61.7533 16.7813 60.858 16.6 59.906 16.6H53.174L59.974 9.868ZM99.0982 9.8V37H92.4342V26.8H80.6702V37H73.9382V16.464L80.6702 9.8V20.068H92.4342V9.8H99.0982ZM113.559 9.8C115.44 9.8 117.208 10.1627 118.863 10.888C120.518 11.5907 121.957 12.5653 123.181 13.812C124.405 15.036 125.368 16.4753 126.071 18.13C126.796 19.7847 127.159 21.5413 127.159 23.4V37H120.427V23.4C120.427 22.4707 120.246 21.598 119.883 20.782C119.52 19.9433 119.033 19.218 118.421 18.606C117.809 17.994 117.084 17.5067 116.245 17.144C115.406 16.7813 114.511 16.6 113.559 16.6C112.63 16.6 111.746 16.7813 110.907 17.144C110.091 17.5067 109.377 17.994 108.765 18.606C108.153 19.218 107.666 19.9433 107.303 20.782C106.94 21.598 106.759 22.4707 106.759 23.4C106.759 24.3293 106.94 25.2133 107.303 26.052C107.666 26.868 108.153 27.582 108.765 28.194C109.377 28.806 110.091 29.2933 110.907 29.656C111.746 30.0187 112.63 30.2 113.559 30.2H120.359L113.559 37C111.678 36.9773 109.91 36.6147 108.255 35.912C106.623 35.1867 105.195 34.212 103.971 32.988C102.747 31.764 101.784 30.336 101.081 28.704C100.378 27.0493 100.027 25.2813 100.027 23.4C100.027 21.5413 100.378 19.7847 101.081 18.13C101.784 16.4753 102.747 15.036 103.971 13.812C105.195 12.5653 106.623 11.5907 108.255 10.888C109.91 10.1627 111.678 9.8 113.559 9.8ZM142.336 16.532H138.868V37H132.136V16.532H125.608V9.8H149.068L142.336 16.532ZM159.668 16.532H156.2V37H149.468V16.532H142.94V9.8H166.4L159.668 16.532Z" fill="black"/>
<path d="M167.256 36V40.116H163V36H167.256Z" fill="#5956E9"/>
</svg>
